<?xml version="1.0" standalone="no"?>
<!DOCTYPE svg PUBLIC "-//W3C//DTD SVG 20010904//EN"
 "http://www.w3.org/TR/2001/REC-SVG-20010904/DTD/svg10.dtd">
<svg version="1.0" xmlns="http://www.w3.org/2000/svg"
 width="800.000000pt" height="800.000000pt" viewBox="0 0 800.000000 800.000000"
 preserveAspectRatio="xMidYMid meet">
<metadata>
Created by potrace 1.14, written by Peter Selinger 2001-2017
</metadata>
<g transform="translate(0.000000,800.000000) scale(0.100000,-0.100000)"
fill="#000000" stroke="none">
<path d="M0 4000 l0 -4000 4000 0 4000 0 0 4000 0 4000 -4000 0 -4000 0 0
-4000z m2506 2039 c171 -32 288 -148 342 -341 14 -54 17 -110 17 -383 0 -280
-2 -328 -18 -384 -65 -228 -210 -341 -437 -341 -163 0 -286 59 -366 178 -86
125 -110 275 -101 632 8 306 33 400 137 513 101 111 258 157 426 126z m2190 0
c171 -32 288 -148 342 -341 14 -54 17 -110 17 -383 0 -280 -2 -328 -18 -384
-65 -228 -210 -341 -437 -341 -163 0 -286 59 -366 178 -86 125 -110 275 -101
632 8 306 33 400 137 513 101 111 258 157 426 126z m1090 0 c171 -32 288 -148
342 -341 14 -54 17 -110 17 -383 0 -280 -2 -328 -18 -384 -65 -228 -210 -341
-437 -341 -163 0 -286 59 -366 178 -86 125 -110 275 -101 632 8 306 33 400
137 513 101 111 258 157 426 126z m-2381 -538 c61 -88 112 -158 116 -156 3 2
54 74 114 160 l109 155 148 0 c101 0 147 -3 143 -10 -4 -6 -81 -120 -173 -253
-91 -133 -165 -246 -165 -252 0 -5 79 -126 176 -268 98 -142 177 -260 177
-262 0 -3 -66 -5 -147 -5 l-148 1 -114 164 c-63 91 -118 165 -122 165 -3 0
-58 -74 -120 -165 l-114 -164 -147 -1 c-82 0 -148 2 -148 5 0 4 62 97 138 208
76 111 157 229 179 263 l41 60 -170 249 c-93 137 -171 253 -174 257 -3 4 62 8
143 8 l149 0 109 -159z m-899 -1852 c171 -32 288 -148 342 -341 14 -54 17
-110 17 -383 0 -280 -2 -328 -18 -384 -65 -228 -210 -341 -437 -341 -163 0
-286 59 -366 178 -86 125 -110 275 -101 632 8 306 33 400 137 513 101 111 258
157 426 126z m2594 -124 l0 -115 -340 0 -340 0 0 -190 0 -190 305 0 305 0 0
-115 0 -115 -305 0 -305 0 0 -290 0 -290 -140 0 -140 0 0 710 0 710 480 0 480
0 0 -115z m1090 0 l0 -115 -340 0 -340 0 0 -190 0 -190 305 0 305 0 0 -115 0
-115 -305 0 -305 0 0 -290 0 -290 -140 0 -140 0 0 710 0 710 480 0 480 0 0
-115z m-2785 -414 c61 -88 112 -158 116 -156 3 2 54 74 114 160 l109 155 148
0 c101 0 147 -3 143 -10 -4 -6 -81 -120 -173 -253 -91 -133 -165 -246 -165
-252 0 -5 79 -126 176 -268 98 -142 177 -260 177 -262 0 -3 -66 -5 -147 -5
l-148 1 -114 164 c-63 91 -118 165 -122 165 -3 0 -58 -74 -120 -165 l-114
-164 -147 -1 c-82 0 -148 2 -148 5 0 4 62 97 138 208 76 111 157 229 179 263
l41 60 -170 249 c-93 137 -171 253 -174 257 -3 4 62 8 143 8 l149 0 109 -159z"/>
<path d="M2325 5801 c-83 -51 -97 -97 -103 -340 l-4 -193 118 88 c66 48 150
110 188 138 l68 51 -5 67 c-7 82 -41 154 -87 186 -43 29 -131 31 -175 3z"/>
<path d="M2402 5214 l-184 -137 7 -51 c19 -135 72 -205 165 -214 77 -7 132 24
167 96 26 54 28 66 31 212 2 85 2 172 0 193 l-3 38 -183 -137z"/>
<path d="M4515 5801 c-83 -51 -97 -97 -103 -340 l-4 -193 118 88 c66 48 150
110 188 138 l68 51 -5 67 c-7 82 -41 154 -87 186 -43 29 -131 31 -175 3z"/>
<path d="M4592 5214 l-184 -137 7 -51 c19 -135 72 -205 165 -214 77 -7 132 24
167 96 26 54 28 66 31 212 2 85 2 172 0 193 l-3 38 -183 -137z"/>
<path d="M5605 5801 c-83 -51 -97 -97 -103 -340 l-4 -193 118 88 c66 48 150
110 188 138 l68 51 -5 67 c-7 82 -41 154 -87 186 -43 29 -131 31 -175 3z"/>
<path d="M5682 5214 l-184 -137 7 -51 c19 -135 72 -205 165 -214 77 -7 132 24
167 96 26 54 28 66 31 212 2 85 2 172 0 193 l-3 38 -183 -137z"/>
<path d="M2325 3411 c-83 -51 -97 -97 -103 -340 l-4 -193 118 88 c66 48 150
110 188 138 l68 51 -5 67 c-7 82 -41 154 -87 186 -43 29 -131 31 -175 3z"/>
<path d="M2402 2824 l-184 -137 7 -51 c19 -135 72 -205 165 -214 77 -7 132 24
167 96 26 54 28 66 31 212 2 85 2 172 0 193 l-3 38 -183 -137z"/>
</g>
</svg>
